<svg width="530" height="183" viewBox="0 0 530 183" fill="none" xmlns="http://www.w3.org/2000/svg">
<rect x="170.288" y="8.9353" width="20.1995" height="169.676" rx="10.0998" fill="#D9D9D9"/>
<rect x="0.610352" y="81.6523" width="20.1995" height="20.1995" rx="10.0998" fill="#D9D9D9"/>
<rect x="28.8906" y="21.0537" width="20.1995" height="141.397" rx="10.0998" fill="#D9D9D9"/>
<rect x="57.1709" y="12.9738" width="20.1995" height="161.596" rx="10.0998" fill="#D9D9D9"/>
<rect x="85.4473" y="37.2141" width="20.1995" height="113.117" rx="10.0998" fill="#D9D9D9"/>
<rect x="113.728" y="25.0952" width="20.1995" height="137.357" rx="10.0998" fill="#D9D9D9"/>
<rect x="142.008" y="17.0152" width="20.1995" height="149.476" rx="10.0998" fill="#D9D9D9"/>
<rect x="198.564" y="12.9738" width="20.1995" height="157.556" rx="10.0998" fill="#D9D9D9"/>
<rect x="226.845" y="8.9353" width="20.1995" height="169.676" rx="10.0998" fill="#D9D9D9"/>
<rect x="255.125" y="49.3354" width="20.1995" height="88.8778" rx="10.0998" fill="#D9D9D9"/>
<rect x="283.405" y="49.3354" width="20.1995" height="88.8778" rx="10.0998" fill="#D9D9D9"/>
<rect x="311.682" y="0.855347" width="20.1995" height="181.796" rx="10.0998" fill="#D9D9D9"/>
<rect x="339.962" y="41.2556" width="20.1995" height="100.998" rx="10.0998" fill="#D9D9D9"/>
<rect x="368.242" y="41.2556" width="20.1995" height="100.998" rx="10.0998" fill="#D9D9D9"/>
<rect x="396.522" y="0.855347" width="20.1995" height="181.796" rx="10.0998" fill="#D9D9D9"/>
<rect x="424.799" y="8.9353" width="20.1995" height="165.636" rx="10.0998" fill="#D9D9D9"/>
<rect x="453.079" y="21.0537" width="20.1995" height="141.397" rx="10.0998" fill="#D9D9D9"/>
<rect x="481.359" y="29.1342" width="20.1995" height="125.237" rx="10.0998" fill="#D9D9D9"/>
<rect x="509.64" y="73.5724" width="20.1995" height="40.399" rx="10.0998" fill="#D9D9D9"/>
</svg>
